<svg width="24" height="24" viewBox="0 0 24 24" fill="none" xmlns="http://www.w3.org/2000/svg">
<rect width="24" height="24" rx="6" fill="#67C97A"/>
<path d="M9.66566 17.3333H14.335C13.894 18.3882 13.0552 19.2269 12.0003 19.668C10.9454 19.2269 10.1067 18.3882 9.66566 17.3333ZM16.0003 13.87L17.3337 15.382V16.6666H6.66699V15.382L8.00033 13.87V9.99997C8.00033 7.67797 9.66966 5.70197 12.0003 4.96997C14.331 5.70197 16.0003 7.67797 16.0003 9.99997V13.87ZM12.0003 11.3333C12.3539 11.3333 12.6931 11.1928 12.9431 10.9428C13.1932 10.6927 13.3337 10.3536 13.3337 9.99997C13.3337 9.64635 13.1932 9.30721 12.9431 9.05716C12.6931 8.80711 12.3539 8.66664 12.0003 8.66664C11.6467 8.66664 11.3076 8.80711 11.0575 9.05716C10.8075 9.30721 10.667 9.64635 10.667 9.99997C10.667 10.3536 10.8075 10.6927 11.0575 10.9428C11.3076 11.1928 11.6467 11.3333 12.0003 11.3333Z" fill="white"/>
</svg>
